<svg width="140" height="140" xmlns="http://www.w3.org/2000/svg"><g transform="translate(23 26)"><path fill="#FFB048" d="M35.1 44.5L12.6 21.6l-3.2.8v62.3l3-.7L35 61z"/><path fill="#F90" d="M23 81.9L35.5 79V69z"/><path fill="#FFB048" d="M35.6 17l-16 3.5 16 16.2zm44.9-1.5l-20.6 7v13.7z"/><path fill="#F90" d="M47.8 49l12.1-12.3v-14L35.6 17v19.7zm-12.7-4.3v16.5l8.4-8.3z"/><path fill="#D17511" d="M35.6 69.3V79l24.3 4.3V44.7z"/><path fill="#F5F5F5" d="M35.1 36.5L19.2 20.2l-6.6 1.5 22.5 23zm.5 24.7l-23 23L23.1 82l12.5-12.5zm24.3-16.5l25.7-25.9v-4.7l-5 1.7-20.7 20.8z"/><path fill="#E5E5E5" d="M47.8 48.6L35.6 36.2v8.2l8.1 8.3-8.1 8.3v8.2l24.3-24.7v-8.2z"/><path fill="#F5F5F5" d="M9.4 50.4l22-9.6-4-4.6-18 7.9z"/><path fill="#FFB048" d="M59.9 45v38.8l25.7-10.2V18.8z"/><path fill="#F5F5F5" d="M59.9 60.8l26.2 10.7v-6.2L60 54.6z"/><path fill="#E5E5E5" d="M48.2 56.4l11.7 4.8V55l-7.3-2.8z"/><path fill="#FFB048" d="M32.2 38.1L4.2 9.9l-4.1.9v77l3.7-.8 28.4-28.5z"/><path fill="#F90" d="M16.8 84.1l15.4-3.4v-12z"/><path fill="#FFB048" d="M32.2 3.6L12.4 8l19.8 20zm56.3-1.5l-25.9 8.7V28z"/><path fill="#F90" d="M47.5 43.2L62.6 28V10.8L32.2 3.6V28zm-15.3-5.1v20.4l10.2-10.2z"/><path fill="#D17511" d="M32.2 68.7v12L62.6 86V38z"/><path fill="#F5F5F5" d="M32.2 28L12.4 8 4 10l28.2 28zm0 30.5L3.8 87l13-2.9 15.4-15.4zm30.4-20.3L94.8 5.9V0l-6.3 2.1-25.9 26z"/><path fill="#E5E5E5" d="M47.5 43.2L32.2 28v10l10.2 10.2-10.2 10.2v10.2l30.4-30.5V28z"/><path fill="#F5F5F5" d="M0 45l27.5-11.6-5-5.7L0 37.4z"/><path fill="#FFB048" d="M62.6 38.2V86l32.2-12.6V6z"/><path fill="#F5F5F5" d="M62.6 58.4l32.3 13v-7.6L62.6 50.7z"/><path fill="#E5E5E5" d="M48.2 52.4l14.4 6v-7.7l-9-3.5z"/><path d="M56.3 65.4A13.5 13.5 0 0147 42.5a13.3 13.3 0 0122.8 9.4 13.4 13.4 0 01-13.4 13.5zm17.8 0h-2.3l-.8-.8c6.7-8 6-19.8-1.6-27a19.3 19.3 0 00-26.8.6 19.5 19.5 0 00-.5 26.9c7 7.7 18.9 8.3 26.8 1.5l.8.9v2.3l14.8 15 4.4-4.5-14.8-15z" fill="#535353"/><path fill="#535353" d="M68.8 66.6l.8.8v2.4l14.9 15 4.4-4.6-14.8-15h-2.4l-.8-.7"/><ellipse fill="#FFF" opacity=".6" cx="56.4" cy="52" rx="13.3" ry="13.4"/></g></svg>